<svg xmlns="http://www.w3.org/2000/svg" xmlns:xlink="http://www.w3.org/1999/xlink" width="2000" zoomAndPan="magnify" viewBox="0 0 1500 809.999993" height="1080" preserveAspectRatio="xMidYMid meet" version="1.2"><defs><clipPath id="8a740eaa56"><path d="M 325 58 L 1121.25 58 L 1121.25 806 L 325 806 Z M 325 58 "/></clipPath><clipPath id="57ee2af882"><path d="M 737 83 L 1407 83 L 1407 735.75 L 737 735.75 Z M 737 83 "/></clipPath><clipPath id="b63672892d"><path d="M 627.75 464 L 919 464 L 919 480 L 627.75 480 Z M 627.75 464 "/></clipPath><clipPath id="492bca3beb"><path d="M 627.75 654 L 732 654 L 732 670 L 627.75 670 Z M 627.75 654 "/></clipPath><clipPath id="101dde7ca0"><path d="M 627.75 212 L 810 212 L 810 228 L 627.75 228 Z M 627.75 212 "/></clipPath><clipPath id="ada04807b6"><path d="M 627.75 528 L 852 528 L 852 544 L 627.75 544 Z M 627.75 528 "/></clipPath><clipPath id="04be4b2dbb"><path d="M 627.75 591 L 793 591 L 793 607 L 627.75 607 Z M 627.75 591 "/></clipPath></defs><g id="de430086dc"><rect x="0" width="1500" y="0" height="809.999993" style="fill:#ffffff;fill-opacity:1;stroke:none;"/><rect x="0" width="1500" y="0" height="809.999993" style="fill:#f6eae0;fill-opacity:1;stroke:none;"/><g clip-rule="nonzero" clip-path="url(#8a740eaa56)"><path style=" stroke:none;fill-rule:nonzero;fill:#40b93c;fill-opacity:1;" d="M 483.339844 680.207031 C 401.847656 611.09375 359.03125 510.679688 367.386719 411.84375 C 377.921875 287.109375 490.988281 146.027344 490.988281 146.027344 C 490.988281 146.027344 386.066406 335.898438 386.75 438.535156 C 440.390625 378.394531 547.789062 330.515625 546.164062 173.597656 C 545.324219 93.210938 553.5625 58.933594 553.5625 58.933594 L 553.53125 59.027344 L 553.5625 58.925781 C 553.5625 58.925781 294.554688 132.445312 346.75 367.917969 C 293.871094 508.621094 343 672.144531 473.738281 758.53125 C 625.597656 858.878906 916.273438 762.527344 1134.058594 799.828125 C 922.265625 736.859375 622.179688 797.910156 483.339844 680.207031 "/></g><path style=" stroke:none;fill-rule:nonzero;fill:#f6eae0;fill-opacity:1;" d="M 445.980469 796.585938 C 377.238281 751.992188 332.300781 684.492188 314.707031 610.617188 C 324.890625 711.636719 385.042969 805.425781 482.585938 854.183594 C 608.683594 917.242188 808.472656 843.53125 990.292969 823.03125 C 799.042969 815.019531 572.152344 878.441406 445.980469 796.585938 "/><path style=" stroke:none;fill-rule:nonzero;fill:#80cc28;fill-opacity:1;" d="M 63.078125 379.863281 C 22.671875 329.347656 0.113281 312.1875 0.113281 312.1875 L 0.171875 312.21875 L 0.101562 312.175781 C 0.101562 312.175781 232.625 211.539062 305.183594 447.09375 C 236.339844 370.371094 83.425781 334.59375 83.425781 334.59375 C 83.425781 334.59375 245.425781 399.496094 297.234375 463.789062 C 233.203125 453.613281 141.929688 478.441406 63.078125 379.863281 "/><path style=" stroke:none;fill-rule:nonzero;fill:#80cc28;fill-opacity:1;" d="M 0.101562 312.175781 L 0.113281 312.1875 L 0.101562 312.175781 "/><path style=" stroke:none;fill-rule:nonzero;fill:#1c6434;fill-opacity:1;" d="M 260.734375 69.894531 C 224.800781 23.507812 214.480469 -0.0664062 214.480469 -0.0664062 L 214.492188 0.00390625 L 214.460938 -0.0664062 L 214.472656 -0.0664062 C 214.472656 -0.0664062 76.179688 183.53125 268.433594 297.71875 C 215.453125 220.65625 216.488281 78.183594 216.488281 78.183594 C 216.488281 78.183594 239.195312 234.875 284.847656 294.261719 C 289.527344 235.621094 330.871094 160.433594 260.734375 69.894531 "/><g clip-rule="nonzero" clip-path="url(#57ee2af882)"><path style=" stroke:none;fill-rule:nonzero;fill:#1c6434;fill-opacity:1;" d="M 1402.820312 260.679688 C 1408.496094 256.175781 1404.558594 250.652344 1398.53125 255.894531 C 1396.671875 256.761719 1383.300781 269.796875 1385.226562 264.992188 C 1386.542969 263.429688 1394.390625 256.59375 1398.828125 253.023438 C 1400.613281 250.59375 1408.257812 247.925781 1406.226562 244.347656 C 1403.5625 241.660156 1400.289062 243.355469 1397.433594 244.851562 C 1399.175781 241.96875 1403.550781 236.050781 1397.324219 235.96875 C 1396.796875 236.035156 1396.292969 236.191406 1395.820312 236.4375 C 1395.820312 236.4375 1395.742188 236.46875 1395.601562 236.539062 C 1394.957031 236.835938 1392.949219 237.78125 1390.820312 238.964844 C 1390.589844 239.09375 1390.351562 239.222656 1390.121094 239.363281 C 1387.304688 240.996094 1374.234375 249.511719 1366.933594 253.359375 L 1366.871094 253.390625 L 1366.871094 253.398438 C 1360.761719 257.5 1353.167969 260.027344 1348.128906 265.675781 C 1344.238281 265.457031 1352.425781 256.085938 1353.976562 251.757812 C 1355.878906 248.464844 1354.246094 240.964844 1350.359375 241.699219 C 1347.878906 242.753906 1349.550781 245.09375 1347.332031 248.542969 C 1335.203125 261.753906 1332.578125 267.359375 1333.304688 285.503906 C 1333.433594 286.949219 1333.253906 288.355469 1332.769531 289.722656 C 1332.289062 291.089844 1331.542969 292.296875 1330.539062 293.34375 C 1322.390625 302.332031 1313.578125 310.613281 1304.101562 318.1875 C 1294.621094 325.757812 1284.597656 332.527344 1274.03125 338.488281 C 1269.070312 341.867188 1267.507812 331.464844 1266.472656 328.382812 C 1265.121094 321.207031 1262.953125 314.289062 1259.964844 307.625 C 1256.980469 300.960938 1253.257812 294.738281 1248.796875 288.957031 C 1236.820312 273.707031 1239.277344 252.972656 1230.265625 236.230469 C 1224.863281 221.84375 1207.195312 219.277344 1212.238281 216.203125 C 1234.910156 199.828125 1228.085938 202.664062 1249.285156 218.320312 C 1254.890625 221.605469 1259.59375 219.960938 1262.21875 213.992188 C 1263.210938 211.734375 1263.890625 209.386719 1266.90625 209.160156 C 1267.113281 209.039062 1267.296875 208.890625 1267.464844 208.722656 C 1267.632812 208.550781 1267.777344 208.363281 1267.898438 208.15625 C 1268.015625 207.949219 1268.109375 207.730469 1268.171875 207.5 C 1268.234375 207.269531 1268.269531 207.03125 1268.269531 206.792969 C 1268.273438 206.554688 1268.246094 206.320312 1268.1875 206.085938 C 1268.132812 205.855469 1268.046875 205.632812 1267.933594 205.421875 C 1267.816406 205.214844 1267.679688 205.019531 1267.515625 204.847656 C 1267.351562 204.671875 1267.167969 204.523438 1266.964844 204.394531 C 1268.855469 202.804688 1274.328125 202.652344 1272.8125 199.320312 C 1270.011719 193.988281 1276.117188 195.003906 1279.378906 193.269531 C 1282.914062 191.929688 1283.042969 191.085938 1282.007812 187.441406 C 1280.644531 182.65625 1279.46875 177.8125 1278.476562 172.945312 C 1278.164062 171.414062 1278.375 169.957031 1279.101562 168.574219 C 1279.796875 167.292969 1280.410156 165.972656 1280.945312 164.613281 C 1281.476562 163.257812 1281.929688 161.871094 1282.296875 160.460938 C 1282.664062 159.050781 1282.945312 157.621094 1283.136719 156.175781 C 1283.332031 154.730469 1283.4375 153.277344 1283.457031 151.816406 C 1283.476562 150.359375 1283.410156 148.90625 1283.25 147.453125 C 1283.09375 146.003906 1282.851562 144.570312 1282.523438 143.148438 C 1282.191406 141.726562 1281.777344 140.332031 1281.277344 138.960938 C 1280.78125 137.589844 1280.203125 136.253906 1279.542969 134.953125 C 1282.695312 134.511719 1282.535156 134.253906 1280.59375 131.160156 C 1269.988281 101.15625 1228.992188 91.535156 1205.015625 111.613281 C 1203.84375 112.4375 1202.320312 113.640625 1201.144531 113.453125 C 1199.3125 113.210938 1197.511719 113.355469 1195.738281 113.890625 C 1193.96875 114.421875 1192.382812 115.292969 1190.988281 116.507812 C 1167.140625 130.652344 1157.671875 94.757812 1137.703125 89.285156 C 1133.484375 87.566406 1129.101562 86.601562 1124.550781 86.394531 C 1128.273438 88.019531 1133.253906 92.828125 1136.449219 98.148438 C 1102.71875 81.011719 1064.171875 81.136719 1030.648438 86.761719 C 1047.679688 88.582031 1068.195312 88.261719 1083.785156 92.898438 C 1074.878906 92.722656 1066.050781 93.464844 1057.300781 95.117188 C 1042.574219 98.769531 1026.023438 105.523438 1018.34375 99.117188 C 1018.660156 99.664062 1024.894531 110.0625 1049.800781 106.109375 C 1061.902344 104.109375 1074.082031 103.332031 1086.335938 103.78125 C 1069.125 107.453125 1055.117188 120.199219 1037.289062 122.394531 C 1028.097656 126.78125 1094.453125 131.003906 1097.636719 130.722656 C 1090.960938 135.289062 1082.617188 134.296875 1075 133.597656 C 1075.457031 134.511719 1076.15625 135.164062 1077.097656 135.558594 C 1081.410156 138.15625 1086.074219 139.65625 1091.09375 140.058594 C 1083.40625 143.234375 1075.539062 145.890625 1067.5 148.027344 C 1076.09375 149.308594 1085.058594 149.558594 1091.792969 147.417969 C 1084.445312 151.605469 1074.902344 152.144531 1066.457031 151.011719 C 1068.011719 152.285156 1069.675781 153.390625 1071.449219 154.332031 C 1089.976562 163.847656 1099.871094 149.335938 1112.652344 143.703125 C 1109.445312 146.445312 1106.539062 149.476562 1103.9375 152.800781 C 1103.507812 153.289062 1103.089844 153.792969 1102.675781 154.304688 C 1101.933594 155.007812 1101.714844 155.40625 1101.882812 155.582031 L 1101.882812 155.59375 L 1101.898438 155.59375 C 1102.878906 156.648438 1118.160156 149.257812 1119.738281 149.136719 C 1124.128906 147.515625 1124.414062 147.515625 1126.734375 151.40625 C 1135.882812 165.382812 1152.023438 162.0625 1164.089844 156.398438 C 1159.363281 161.273438 1154.609375 164.589844 1148.519531 164.648438 C 1160.753906 169.152344 1173.800781 154.390625 1179.988281 144.480469 C 1185.101562 138.601562 1190.152344 132.691406 1195.277344 126.84375 C 1201.128906 121.71875 1188.59375 140.871094 1188.183594 142.691406 C 1183.359375 152.183594 1183.089844 161.53125 1189.574219 170.578125 C 1191.632812 173.460938 1191.464844 173.890625 1188.367188 175.800781 C 1163.855469 189.21875 1174.234375 177.390625 1156.664062 175.558594 C 1154.761719 175.792969 1152.855469 175.855469 1150.945312 175.75 C 1149.03125 175.644531 1147.144531 175.375 1145.28125 174.9375 C 1143.414062 174.5 1141.605469 173.90625 1139.84375 173.148438 C 1138.085938 172.390625 1136.40625 171.488281 1134.804688 170.4375 C 1122.980469 162.519531 1108.683594 163.910156 1095.140625 164.179688 C 1082.390625 164.46875 1071.125 157.078125 1058.839844 154.878906 C 1041.050781 151.347656 1023.125 148.402344 1005.25 145.328125 C 989.15625 146.34375 973.253906 148.664062 957.546875 152.292969 C 941.835938 155.921875 926.527344 160.808594 911.621094 166.957031 C 903.480469 170.703125 895.050781 173.59375 886.324219 175.628906 C 884.507812 175.953125 882.808594 176.585938 881.222656 177.527344 C 879.636719 178.46875 878.265625 179.65625 877.109375 181.09375 C 876.308594 182.113281 875.34375 182.945312 874.21875 183.59375 C 873.09375 184.238281 871.890625 184.652344 870.605469 184.832031 C 856.902344 187.160156 845.980469 195.449219 834.144531 201.773438 C 834.144531 202.191406 822.484375 206.171875 820.144531 211.097656 C 819.90625 212.03125 819.300781 213.5625 819.640625 213.8125 C 820.597656 214.546875 821.679688 214.875 822.882812 214.804688 C 829.667969 212.207031 832.96875 206.796875 840.839844 205.632812 C 830.679688 212.101562 821.160156 219.40625 812.285156 227.550781 C 811.859375 227.933594 811.503906 228.378906 811.226562 228.882812 C 810.949219 229.386719 810.765625 229.921875 810.667969 230.492188 C 810.574219 231.058594 810.574219 231.625 810.675781 232.191406 C 810.773438 232.757812 810.960938 233.292969 811.242188 233.796875 C 811.640625 234.730469 814.136719 234.652344 814.816406 235.617188 C 813.027344 249.296875 850.191406 226.941406 857.425781 225.570312 C 863.125 225.023438 854.25 231.925781 852.988281 233.558594 C 849.625 235.566406 846.53125 248.183594 853.1875 244.433594 C 858.25 239.238281 863.722656 234.355469 870.636719 231.679688 C 872.335938 230.980469 873.882812 230.039062 875.285156 228.855469 C 876.6875 227.671875 877.875 226.300781 878.84375 224.742188 C 886.226562 214.546875 890.226562 200.957031 903.328125 196.757812 C 933.082031 185.179688 964.957031 181.746094 995.957031 174.980469 C 997.71875 174.542969 999.503906 174.261719 1001.316406 174.140625 C 1003.125 174.015625 1004.933594 174.054688 1006.738281 174.25 C 1008.542969 174.445312 1010.316406 174.800781 1012.058594 175.3125 C 1013.800781 175.820312 1015.484375 176.480469 1017.109375 177.289062 C 1040.207031 189.503906 1067.011719 191.675781 1090.808594 201.542969 C 1093.652344 208.796875 1086.101562 223.53125 1084.707031 232.09375 C 1080.191406 267.265625 1064.035156 312.648438 1029.84375 327.035156 C 1026.886719 328.648438 1025.726562 332.277344 1022.023438 332.792969 C 1006.0625 337.894531 991.671875 346.296875 981.800781 360.140625 C 965.683594 381.53125 977.601562 389.777344 968.21875 412.167969 C 967.253906 416.089844 965.742188 419.792969 963.6875 423.269531 C 961.632812 426.75 959.121094 429.859375 956.152344 432.601562 C 945.8125 442.113281 937.148438 452.957031 930.160156 465.144531 C 918.28125 487.308594 898.570312 503.269531 880.457031 520.148438 C 868.675781 530.304688 854.820312 537.875 842.144531 546.839844 C 825.113281 557.761719 814.449219 574.355469 804.566406 591.605469 C 792.371094 606.980469 781.765625 623.890625 768.355469 638.175781 C 763.035156 641.867188 759.980469 634.921875 751.34375 641.28125 C 742.867188 646.414062 732.742188 652.761719 739.464844 664.0625 C 747.410156 679.472656 757.988281 693.976562 759.71875 711.773438 C 761.144531 726.269531 773.621094 735.589844 790.042969 735.144531 C 800.488281 734.605469 807.582031 726.589844 802.796875 721.542969 C 788.71875 713.726562 787.734375 700.265625 793.148438 686.398438 C 793.464844 685.867188 793.929688 685.539062 794.539062 685.421875 C 798 684.695312 798.644531 682.148438 798.535156 679.222656 C 798.417969 676.089844 798.753906 672.539062 794.847656 671.253906 C 792.644531 670.558594 792.859375 669.53125 793.761719 668 C 813.488281 632.277344 850.605469 611.425781 879.886719 584.335938 C 891.1875 574.40625 902.605469 564.757812 915.75 557.34375 C 920.421875 554.804688 924.785156 551.816406 928.839844 548.375 C 932.894531 544.933594 936.554688 541.117188 939.820312 536.921875 C 963.664062 516.019531 995.667969 505.007812 1016.949219 480.632812 C 1025.265625 471.417969 1033.136719 461.808594 1041.132812 452.308594 C 1043.742188 449.195312 1043.582031 449.261719 1047.460938 450.566406 C 1058.472656 454.339844 1069.4375 458.335938 1080.625 461.519531 C 1103.386719 468.554688 1129.621094 462.910156 1150.730469 475.070312 C 1143.816406 477.976562 1136.375 479.585938 1129.484375 482.542969 C 1087.628906 497.710938 1052.808594 550.699219 1007.652344 549.914062 C 1003.371094 550.648438 999.28125 551.976562 995.382812 553.894531 C 991.484375 555.8125 987.9375 558.242188 984.742188 561.183594 C 977.332031 568.347656 985.070312 584.761719 991.320312 590.273438 C 994.894531 594.550781 993.578125 602.886719 993.445312 608.3125 C 997.464844 629.359375 1010.042969 645.875 1025.183594 659.714844 C 1040.035156 669.59375 1040.671875 648.859375 1037.707031 639.261719 C 1035.03125 627.746094 1037.769531 616.699219 1040.289062 605.636719 C 1040.4375 604.910156 1041.800781 603.753906 1042.25 603.894531 C 1044.316406 604.582031 1044.355469 603.449219 1044.796875 601.957031 C 1049.273438 596.363281 1051.347656 591.074219 1044.289062 586.484375 C 1042.578125 585.324219 1041.652344 587.152344 1040.578125 588.117188 C 1034.410156 589.429688 1048.816406 574.84375 1050.308594 574.269531 C 1092.96875 542.3125 1148.082031 534.097656 1196.730469 514.347656 C 1201.957031 512.421875 1206.828125 509.828125 1211.34375 506.566406 C 1215.859375 503.304688 1219.851562 499.496094 1223.324219 495.140625 C 1262.628906 450.925781 1131.089844 394.609375 1099.523438 380.589844 C 1096.925781 379.457031 1096.941406 379.316406 1098.519531 377.109375 C 1100.359375 374.527344 1102.371094 372.035156 1104.019531 369.328125 C 1107.210938 364.410156 1110.683594 359.699219 1114.4375 355.195312 C 1118.191406 350.6875 1122.199219 346.425781 1126.460938 342.398438 C 1130.726562 338.371094 1135.214844 334.617188 1139.925781 331.125 C 1144.640625 327.636719 1149.542969 324.441406 1154.636719 321.539062 C 1175.121094 316.222656 1184.085938 309.269531 1189.886719 288.359375 C 1191.496094 281.433594 1205.335938 272.421875 1207.054688 283.761719 C 1212.21875 318.261719 1234.367188 346.140625 1251.367188 375.558594 C 1258.121094 385.15625 1262.011719 384.949219 1271.683594 378.710938 C 1300.253906 361.976562 1323.296875 338.089844 1345.550781 313.976562 C 1347.601562 307.300781 1419.621094 273.523438 1402.050781 270.609375 C 1397.582031 271.070312 1393.871094 274.273438 1389.914062 276.519531 C 1388.101562 277.445312 1385.695312 276.640625 1387.753906 274.535156 C 1392.292969 269.746094 1402.171875 261.6875 1402.820312 260.679688 Z M 1402.820312 260.679688 "/></g><path style=" stroke:none;fill-rule:nonzero;fill:#1c6434;fill-opacity:1;" d="M 763.265625 100.894531 L 1008.570312 100.894531 C 1008.496094 100.480469 1008.445312 100.0625 1008.425781 99.640625 C 1008.40625 99.222656 1008.410156 98.800781 1008.441406 98.382812 C 1008.476562 97.960938 1008.535156 97.546875 1008.617188 97.132812 C 1008.703125 96.722656 1008.8125 96.316406 1008.949219 95.917969 C 1009.085938 95.519531 1009.246094 95.132812 1009.433594 94.753906 C 1009.621094 94.375 1009.828125 94.011719 1010.058594 93.660156 C 1010.292969 93.308594 1010.546875 92.972656 1010.820312 92.652344 C 1011.09375 92.335938 1011.386719 92.035156 1011.699219 91.753906 C 1012.011719 91.46875 1012.34375 91.210938 1012.6875 90.96875 C 1013.035156 90.730469 1013.394531 90.511719 1013.765625 90.316406 C 1014.140625 90.121094 1014.523438 89.953125 1014.917969 89.804688 C 1015.3125 89.660156 1015.714844 89.539062 1016.125 89.445312 C 1016.535156 89.351562 1016.953125 89.28125 1017.371094 89.238281 C 1017.789062 89.199219 1018.207031 89.183594 1018.628906 89.191406 C 1019.050781 89.203125 1019.46875 89.242188 1019.886719 89.304688 C 1020.300781 89.371094 1020.710938 89.460938 1021.117188 89.578125 C 1020.875 88.761719 1020.742188 87.929688 1020.71875 87.078125 C 1020.710938 86.710938 1020.71875 86.34375 1020.753906 85.980469 L 763.265625 85.980469 C 762.773438 85.972656 762.28125 86.011719 761.792969 86.101562 C 761.308594 86.191406 760.832031 86.328125 760.375 86.511719 C 759.914062 86.695312 759.476562 86.925781 759.0625 87.195312 C 758.648438 87.464844 758.265625 87.773438 757.910156 88.121094 C 757.558594 88.46875 757.242188 88.847656 756.964844 89.257812 C 756.6875 89.667969 756.453125 90.101562 756.261719 90.558594 C 756.070312 91.015625 755.925781 91.484375 755.828125 91.972656 C 755.730469 92.457031 755.683594 92.945312 755.683594 93.441406 C 755.683594 93.9375 755.730469 94.425781 755.828125 94.914062 C 755.925781 95.398438 756.070312 95.867188 756.261719 96.324219 C 756.453125 96.78125 756.6875 97.214844 756.964844 97.625 C 757.242188 98.035156 757.558594 98.414062 757.910156 98.761719 C 758.265625 99.109375 758.648438 99.417969 759.0625 99.6875 C 759.476562 99.960938 759.914062 100.1875 760.375 100.371094 C 760.832031 100.554688 761.308594 100.691406 761.792969 100.78125 C 762.28125 100.871094 762.773438 100.910156 763.265625 100.902344 Z M 763.265625 100.894531 "/><g clip-rule="nonzero" clip-path="url(#b63672892d)"><path style=" stroke:none;fill-rule:nonzero;fill:#1c6434;fill-opacity:1;" d="M 616.5625 472.417969 C 616.5625 472.90625 616.609375 473.390625 616.707031 473.871094 C 616.800781 474.351562 616.941406 474.820312 617.128906 475.273438 C 617.316406 475.722656 617.546875 476.15625 617.820312 476.5625 C 618.089844 476.96875 618.402344 477.347656 618.746094 477.691406 C 619.09375 478.039062 619.46875 478.347656 619.878906 478.621094 C 620.285156 478.894531 620.714844 479.121094 621.167969 479.308594 C 621.621094 479.496094 622.085938 479.640625 622.566406 479.734375 C 623.046875 479.832031 623.53125 479.878906 624.023438 479.878906 L 907.6875 479.878906 C 911.78125 475.207031 915.464844 470.234375 918.738281 464.953125 L 624.023438 464.953125 C 623.53125 464.953125 623.046875 465.003906 622.566406 465.097656 C 622.085938 465.195312 621.621094 465.335938 621.167969 465.523438 C 620.714844 465.710938 620.285156 465.941406 619.878906 466.210938 C 619.46875 466.484375 619.09375 466.792969 618.746094 467.140625 C 618.402344 467.488281 618.089844 467.863281 617.820312 468.269531 C 617.546875 468.679688 617.316406 469.109375 617.128906 469.5625 C 616.941406 470.015625 616.800781 470.480469 616.707031 470.960938 C 616.609375 471.441406 616.5625 471.925781 616.5625 472.417969 Z M 616.5625 472.417969 "/></g><path style=" stroke:none;fill-rule:nonzero;fill:#1c6434;fill-opacity:1;" d="M 761.339844 346.09375 C 761.339844 346.582031 761.386719 347.070312 761.480469 347.550781 C 761.578125 348.03125 761.71875 348.496094 761.90625 348.949219 C 762.09375 349.402344 762.324219 349.832031 762.597656 350.238281 C 762.867188 350.648438 763.175781 351.023438 763.523438 351.371094 C 763.871094 351.71875 764.246094 352.027344 764.65625 352.296875 C 765.0625 352.570312 765.492188 352.800781 765.945312 352.988281 C 766.398438 353.175781 766.863281 353.316406 767.34375 353.414062 C 767.824219 353.507812 768.3125 353.554688 768.800781 353.554688 L 974.269531 353.554688 C 978.441406 347.890625 983.320312 342.917969 988.902344 338.632812 L 768.800781 338.632812 C 768.3125 338.632812 767.824219 338.679688 767.34375 338.777344 C 766.863281 338.871094 766.398438 339.011719 765.945312 339.199219 C 765.492188 339.386719 765.0625 339.617188 764.65625 339.890625 C 764.246094 340.160156 763.871094 340.472656 763.523438 340.816406 C 763.179688 341.164062 762.867188 341.539062 762.597656 341.949219 C 762.324219 342.355469 762.09375 342.785156 761.90625 343.238281 C 761.71875 343.691406 761.578125 344.15625 761.480469 344.636719 C 761.386719 345.117188 761.339844 345.601562 761.339844 346.09375 Z M 761.339844 346.09375 "/><path style=" stroke:none;fill-rule:nonzero;fill:#1c6434;fill-opacity:1;" d="M 655.851562 409.253906 C 655.847656 409.742188 655.898438 410.226562 655.992188 410.707031 C 656.089844 411.1875 656.230469 411.65625 656.417969 412.109375 C 656.605469 412.558594 656.835938 412.992188 657.105469 413.398438 C 657.378906 413.804688 657.6875 414.183594 658.035156 414.527344 C 658.382812 414.875 658.757812 415.183594 659.164062 415.457031 C 659.574219 415.726562 660.003906 415.957031 660.453125 416.144531 C 660.90625 416.332031 661.375 416.472656 661.855469 416.570312 C 662.335938 416.664062 662.820312 416.714844 663.308594 416.714844 L 955.867188 416.714844 C 957.023438 414.40625 957.933594 412.007812 958.601562 409.515625 C 958.714844 409.097656 958.855469 408.691406 959.023438 408.292969 C 959.921875 406.179688 960.648438 404.015625 961.207031 401.789062 L 663.308594 401.789062 C 662.820312 401.789062 662.335938 401.839844 661.855469 401.933594 C 661.375 402.03125 660.90625 402.171875 660.453125 402.359375 C 660 402.546875 659.570312 402.777344 659.164062 403.046875 C 658.757812 403.320312 658.378906 403.628906 658.035156 403.976562 C 657.6875 404.324219 657.378906 404.699219 657.105469 405.105469 C 656.835938 405.515625 656.605469 405.945312 656.417969 406.398438 C 656.230469 406.851562 656.089844 407.316406 655.992188 407.796875 C 655.898438 408.277344 655.847656 408.761719 655.851562 409.253906 Z M 655.851562 409.253906 "/><path style=" stroke:none;fill-rule:nonzero;fill:#1c6434;fill-opacity:1;" d="M 763.265625 164.058594 L 891.367188 164.058594 C 896.449219 162.46875 901.519531 160.375 906.789062 158.179688 L 907.78125 157.765625 C 915.632812 154.566406 923.597656 151.6875 931.609375 149.132812 L 763.265625 149.132812 C 762.777344 149.132812 762.292969 149.183594 761.8125 149.277344 C 761.332031 149.371094 760.863281 149.515625 760.410156 149.703125 C 759.957031 149.890625 759.527344 150.121094 759.121094 150.390625 C 758.714844 150.664062 758.335938 150.972656 757.992188 151.320312 C 757.644531 151.667969 757.335938 152.042969 757.0625 152.449219 C 756.789062 152.859375 756.558594 153.289062 756.371094 153.742188 C 756.183594 154.191406 756.042969 154.660156 755.949219 155.140625 C 755.851562 155.621094 755.804688 156.105469 755.804688 156.597656 C 755.804688 157.085938 755.851562 157.570312 755.949219 158.050781 C 756.042969 158.53125 756.183594 159 756.371094 159.453125 C 756.558594 159.90625 756.789062 160.335938 757.0625 160.742188 C 757.335938 161.148438 757.644531 161.527344 757.992188 161.871094 C 758.335938 162.21875 758.714844 162.527344 759.121094 162.800781 C 759.527344 163.074219 759.957031 163.304688 760.410156 163.492188 C 760.863281 163.679688 761.332031 163.820312 761.8125 163.914062 C 762.292969 164.011719 762.777344 164.058594 763.265625 164.058594 Z M 763.265625 164.058594 "/><path style=" stroke:none;fill-rule:nonzero;fill:#1c6434;fill-opacity:1;" d="M 711.859375 282.925781 C 711.859375 283.414062 711.90625 283.902344 712.003906 284.382812 C 712.097656 284.863281 712.238281 285.328125 712.425781 285.78125 C 712.613281 286.234375 712.84375 286.664062 713.117188 287.070312 C 713.386719 287.476562 713.699219 287.855469 714.042969 288.199219 C 714.390625 288.546875 714.765625 288.855469 715.175781 289.128906 C 715.582031 289.402344 716.011719 289.628906 716.464844 289.816406 C 716.917969 290.003906 717.382812 290.148438 717.863281 290.242188 C 718.34375 290.339844 718.828125 290.386719 719.320312 290.386719 L 1055.367188 290.386719 C 1058.261719 285.59375 1060.800781 280.617188 1062.984375 275.464844 L 719.3125 275.464844 C 718.820312 275.464844 718.335938 275.511719 717.855469 275.609375 C 717.375 275.703125 716.910156 275.847656 716.457031 276.035156 C 716.007812 276.222656 715.578125 276.453125 715.167969 276.722656 C 714.761719 276.996094 714.386719 277.304688 714.039062 277.652344 C 713.695312 278 713.386719 278.375 713.113281 278.78125 C 712.84375 279.191406 712.613281 279.621094 712.425781 280.070312 C 712.238281 280.523438 712.097656 280.992188 712 281.472656 C 711.90625 281.949219 711.859375 282.4375 711.859375 282.925781 Z M 711.859375 282.925781 "/><g clip-rule="nonzero" clip-path="url(#492bca3beb)"><path style=" stroke:none;fill-rule:nonzero;fill:#1c6434;fill-opacity:1;" d="M 730.722656 668.828125 C 729.390625 666.683594 728.445312 664.375 727.886719 661.910156 C 727.324219 659.449219 727.183594 656.960938 727.457031 654.445312 L 444.515625 654.445312 C 444.019531 654.4375 443.53125 654.480469 443.042969 654.570312 C 442.554688 654.660156 442.082031 654.796875 441.621094 654.980469 C 441.164062 655.164062 440.726562 655.390625 440.3125 655.660156 C 439.898438 655.933594 439.511719 656.242188 439.160156 656.589844 C 438.808594 656.9375 438.492188 657.316406 438.214844 657.726562 C 437.9375 658.132812 437.703125 658.566406 437.511719 659.023438 C 437.320312 659.480469 437.175781 659.953125 437.078125 660.4375 C 436.980469 660.921875 436.929688 661.414062 436.929688 661.910156 C 436.929688 662.402344 436.980469 662.894531 437.078125 663.378906 C 437.175781 663.863281 437.320312 664.335938 437.511719 664.792969 C 437.703125 665.25 437.9375 665.683594 438.214844 666.09375 C 438.492188 666.503906 438.808594 666.878906 439.160156 667.226562 C 439.511719 667.574219 439.898438 667.882812 440.3125 668.15625 C 440.726562 668.425781 441.164062 668.652344 441.621094 668.835938 C 442.082031 669.019531 442.554688 669.15625 443.042969 669.246094 C 443.53125 669.335938 444.019531 669.378906 444.515625 669.371094 L 731.015625 669.371094 C 730.921875 669.1875 730.824219 669.011719 730.722656 668.828125 Z M 730.722656 668.828125 "/></g><g clip-rule="nonzero" clip-path="url(#101dde7ca0)"><path style=" stroke:none;fill-rule:nonzero;fill:#1c6434;fill-opacity:1;" d="M 553.699219 227.222656 L 801.152344 227.222656 C 801.921875 224.429688 803.394531 222.078125 805.574219 220.171875 C 806.972656 218.851562 808.417969 217.539062 809.917969 216.234375 C 809.617188 214.933594 809.542969 213.625 809.695312 212.300781 L 553.699219 212.300781 C 553.214844 212.308594 552.734375 212.363281 552.261719 212.464844 C 551.785156 212.566406 551.324219 212.710938 550.878906 212.902344 C 550.433594 213.09375 550.011719 213.324219 549.609375 213.597656 C 549.210938 213.871094 548.839844 214.183594 548.5 214.527344 C 548.160156 214.871094 547.855469 215.25 547.589844 215.652344 C 547.324219 216.058594 547.097656 216.484375 546.914062 216.933594 C 546.730469 217.382812 546.589844 217.84375 546.496094 218.320312 C 546.40625 218.796875 546.359375 219.277344 546.359375 219.761719 C 546.359375 220.246094 546.40625 220.726562 546.5 221.203125 C 546.589844 221.675781 546.730469 222.140625 546.914062 222.589844 C 547.097656 223.039062 547.324219 223.464844 547.589844 223.867188 C 547.855469 224.273438 548.160156 224.648438 548.5 224.996094 C 548.839844 225.339844 549.210938 225.648438 549.609375 225.921875 C 550.011719 226.195312 550.433594 226.429688 550.878906 226.621094 C 551.324219 226.8125 551.785156 226.957031 552.261719 227.058594 C 552.734375 227.160156 553.214844 227.214844 553.699219 227.222656 Z M 553.699219 227.222656 "/></g><path style=" stroke:none;fill-rule:nonzero;fill:#1c6434;fill-opacity:1;" d="M 992.480469 634.761719 L 913.6875 634.761719 C 913.199219 634.761719 912.714844 634.8125 912.234375 634.90625 C 911.753906 635.003906 911.289062 635.148438 910.835938 635.335938 C 910.386719 635.523438 909.957031 635.753906 909.550781 636.027344 C 909.144531 636.296875 908.769531 636.605469 908.421875 636.953125 C 908.078125 637.300781 907.769531 637.675781 907.5 638.082031 C 907.226562 638.492188 907 638.921875 906.8125 639.371094 C 906.625 639.824219 906.484375 640.289062 906.386719 640.769531 C 906.292969 641.25 906.246094 641.734375 906.246094 642.222656 C 906.246094 642.710938 906.292969 643.195312 906.386719 643.675781 C 906.484375 644.15625 906.625 644.621094 906.8125 645.074219 C 907 645.527344 907.226562 645.957031 907.5 646.363281 C 907.769531 646.769531 908.078125 647.144531 908.421875 647.492188 C 908.769531 647.839844 909.144531 648.148438 909.550781 648.421875 C 909.957031 648.691406 910.386719 648.921875 910.835938 649.113281 C 911.289062 649.300781 911.753906 649.441406 912.234375 649.539062 C 912.714844 649.636719 913.199219 649.683594 913.6875 649.683594 L 1002.25 649.683594 C 998.566406 644.988281 995.3125 640.015625 992.480469 634.761719 Z M 992.480469 634.761719 "/><g clip-rule="nonzero" clip-path="url(#ada04807b6)"><path style=" stroke:none;fill-rule:nonzero;fill:#1c6434;fill-opacity:1;" d="M 836.5625 538.550781 C 841.164062 535.300781 845.910156 532.234375 850.496094 529.265625 L 851.636719 528.527344 C 850.855469 528.257812 850.050781 528.121094 849.226562 528.121094 L 434.964844 528.121094 C 434.472656 528.113281 433.980469 528.152344 433.492188 528.242188 C 433.007812 528.332031 432.535156 528.46875 432.074219 528.652344 C 431.613281 528.835938 431.175781 529.0625 430.761719 529.335938 C 430.347656 529.605469 429.964844 529.914062 429.609375 530.261719 C 429.257812 530.609375 428.941406 530.988281 428.664062 531.398438 C 428.386719 531.808594 428.152344 532.242188 427.960938 532.699219 C 427.769531 533.152344 427.625 533.625 427.527344 534.109375 C 427.429688 534.597656 427.382812 535.085938 427.382812 535.582031 C 427.382812 536.078125 427.429688 536.566406 427.527344 537.050781 C 427.625 537.539062 427.769531 538.007812 427.960938 538.464844 C 428.152344 538.921875 428.386719 539.355469 428.664062 539.765625 C 428.941406 540.175781 429.257812 540.554688 429.609375 540.902344 C 429.964844 541.246094 430.347656 541.558594 430.761719 541.828125 C 431.175781 542.097656 431.613281 542.324219 432.074219 542.511719 C 432.535156 542.695312 433.007812 542.832031 433.492188 542.921875 C 433.980469 543.011719 434.472656 543.050781 434.964844 543.042969 L 830.253906 543.042969 C 832.261719 541.488281 834.355469 539.972656 836.5625 538.550781 Z M 836.5625 538.550781 "/></g><g clip-rule="nonzero" clip-path="url(#04be4b2dbb)"><path style=" stroke:none;fill-rule:nonzero;fill:#1c6434;fill-opacity:1;" d="M 792.195312 591.285156 L 599.277344 591.285156 C 598.785156 591.277344 598.292969 591.316406 597.804688 591.40625 C 597.320312 591.496094 596.84375 591.632812 596.386719 591.816406 C 595.925781 592 595.488281 592.226562 595.074219 592.5 C 594.660156 592.769531 594.277344 593.078125 593.921875 593.425781 C 593.570312 593.773438 593.253906 594.152344 592.976562 594.5625 C 592.699219 594.972656 592.464844 595.40625 592.273438 595.859375 C 592.082031 596.316406 591.9375 596.789062 591.839844 597.273438 C 591.742188 597.757812 591.695312 598.25 591.695312 598.746094 C 591.695312 599.238281 591.742188 599.730469 591.839844 600.214844 C 591.9375 600.699219 592.082031 601.171875 592.273438 601.628906 C 592.464844 602.085938 592.699219 602.519531 592.976562 602.929688 C 593.253906 603.339844 593.570312 603.71875 593.921875 604.0625 C 594.277344 604.410156 594.660156 604.71875 595.074219 604.992188 C 595.488281 605.261719 595.925781 605.488281 596.386719 605.671875 C 596.84375 605.859375 597.320312 605.996094 597.804688 606.082031 C 598.292969 606.171875 598.785156 606.214844 599.277344 606.207031 L 781.199219 606.207031 C 781.984375 605.132812 782.773438 604.050781 783.566406 602.960938 C 786.371094 599.113281 789.246094 595.179688 792.195312 591.285156 Z M 792.195312 591.285156 "/></g></g></svg>